<?xml version="1.0" encoding="UTF-8" standalone="no"?>
<!DOCTYPE svg PUBLIC "-//W3C//DTD SVG 1.1//EN"
 "http://www.w3.org/Graphics/SVG/1.1/DTD/svg11.dtd">
<!-- Generated by graphviz version 2.42.4 (0)
 -->
<!-- Title: G Pages: 1 -->
<svg width="857pt" height="72pt"
 viewBox="0.00 0.00 857.00 72.00" xmlns="http://www.w3.org/2000/svg" xmlns:xlink="http://www.w3.org/1999/xlink">
<g id="graph0" class="graph" transform="scale(1 1) rotate(0) translate(18 54)">
<title>G</title>
<!-- Idea -->
<g id="node1" class="node">
<title>Idea</title>
<path fill="#f7f7f7" stroke="#333333" d="M67,-36C67,-36 12,-36 12,-36 6,-36 0,-30 0,-24 0,-24 0,-12 0,-12 0,-6 6,0 12,0 12,0 67,0 67,0 73,0 79,-6 79,-12 79,-12 79,-24 79,-24 79,-30 73,-36 67,-36"/>
<text text-anchor="middle" x="39.5" y="-14.3" font-family="Noto Sans Thai" font-size="14.00">ไอเดียเล็ก</text>
</g>
<!-- Prompt -->
<g id="node2" class="node">
<title>Prompt</title>
<path fill="#f7f7f7" stroke="#333333" d="M255,-36C255,-36 131,-36 131,-36 125,-36 119,-30 119,-24 119,-24 119,-12 119,-12 119,-6 125,0 131,0 131,0 255,0 255,0 261,0 267,-6 267,-12 267,-12 267,-24 267,-24 267,-30 261,-36 255,-36"/>
<text text-anchor="middle" x="193" y="-14.3" font-family="Noto Sans Thai" font-size="14.00">บอกผลลัพธ์ที่ต้องการ</text>
</g>
<!-- Idea&#45;&gt;Prompt -->
<g id="edge1" class="edge">
<title>Idea&#45;&gt;Prompt</title>
<path fill="none" stroke="#555555" stroke-width="1.4" d="M79.12,-18C88.93,-18 99.84,-18 110.9,-18"/>
<polygon fill="#555555" stroke="#555555" stroke-width="1.4" points="110.97,-20.8 118.97,-18 110.97,-15.2 110.97,-20.8"/>
</g>
<!-- Build -->
<g id="node3" class="node">
<title>Build</title>
<path fill="#f7f7f7" stroke="#333333" d="M397,-36C397,-36 319,-36 319,-36 313,-36 307,-30 307,-24 307,-24 307,-12 307,-12 307,-6 313,0 319,0 319,0 397,0 397,0 403,0 409,-6 409,-12 409,-12 409,-24 409,-24 409,-30 403,-36 397,-36"/>
<text text-anchor="middle" x="358" y="-14.3" font-family="Noto Sans Thai" font-size="14.00">ได้เวอร์ชันแรก</text>
</g>
<!-- Prompt&#45;&gt;Build -->
<g id="edge2" class="edge">
<title>Prompt&#45;&gt;Build</title>
<path fill="none" stroke="#555555" stroke-width="1.4" d="M267.39,-18C277.93,-18 288.65,-18 298.83,-18"/>
<polygon fill="#555555" stroke="#555555" stroke-width="1.4" points="298.87,-20.8 306.87,-18 298.87,-15.2 298.87,-20.8"/>
</g>
<!-- Test -->
<g id="node4" class="node">
<title>Test</title>
<path fill="#f7f7f7" stroke="#333333" d="M533,-36C533,-36 461,-36 461,-36 455,-36 449,-30 449,-24 449,-24 449,-12 449,-12 449,-6 455,0 461,0 461,0 533,0 533,0 539,0 545,-6 545,-12 545,-12 545,-24 545,-24 545,-30 539,-36 533,-36"/>
<text text-anchor="middle" x="497" y="-14.3" font-family="Noto Sans Thai" font-size="14.00">ลองกดให้พัง</text>
</g>
<!-- Build&#45;&gt;Test -->
<g id="edge3" class="edge">
<title>Build&#45;&gt;Test</title>
<path fill="none" stroke="#555555" stroke-width="1.4" d="M409.24,-18C419.48,-18 430.31,-18 440.72,-18"/>
<polygon fill="#555555" stroke="#555555" stroke-width="1.4" points="440.96,-20.8 448.96,-18 440.96,-15.2 440.96,-20.8"/>
</g>
<!-- Change -->
<g id="node5" class="node">
<title>Change</title>
<path fill="#f7f7f7" stroke="#333333" d="M663,-36C663,-36 597,-36 597,-36 591,-36 585,-30 585,-24 585,-24 585,-12 585,-12 585,-6 591,0 597,0 597,0 663,0 663,0 669,0 675,-6 675,-12 675,-12 675,-24 675,-24 675,-30 669,-36 663,-36"/>
<text text-anchor="middle" x="630" y="-14.3" font-family="Noto Sans Thai" font-size="14.00">แก้ทีละเรื่อง</text>
</g>
<!-- Test&#45;&gt;Change -->
<g id="edge4" class="edge">
<title>Test&#45;&gt;Change</title>
<path fill="none" stroke="#555555" stroke-width="1.4" d="M545.29,-18C555.47,-18 566.29,-18 576.64,-18"/>
<polygon fill="#555555" stroke="#555555" stroke-width="1.4" points="576.83,-20.8 584.83,-18 576.83,-15.2 576.83,-20.8"/>
</g>
<!-- Publish -->
<g id="node6" class="node">
<title>Publish</title>
<path fill="#f7f7f7" stroke="#333333" d="M809,-36C809,-36 727,-36 727,-36 721,-36 715,-30 715,-24 715,-24 715,-12 715,-12 715,-6 721,0 727,0 727,0 809,0 809,0 815,0 821,-6 821,-12 821,-12 821,-24 821,-24 821,-30 815,-36 809,-36"/>
<text text-anchor="middle" x="768" y="-14.3" font-family="Noto Sans Thai" font-size="14.00">เอาขึ้นลิงก์จริง</text>
</g>
<!-- Change&#45;&gt;Publish -->
<g id="edge5" class="edge">
<title>Change&#45;&gt;Publish</title>
<path fill="none" stroke="#555555" stroke-width="1.4" d="M675.16,-18C685.17,-18 695.97,-18 706.53,-18"/>
<polygon fill="#555555" stroke="#555555" stroke-width="1.4" points="706.54,-20.8 714.54,-18 706.54,-15.2 706.54,-20.8"/>
</g>
</g>
</svg>
