<?xml version="1.0" encoding="UTF-8" standalone="no"?>
<!DOCTYPE svg PUBLIC "-//W3C//DTD SVG 1.1//EN"
 "http://www.w3.org/Graphics/SVG/1.1/DTD/svg11.dtd">
<!-- Generated by graphviz version 2.42.4 (0)
 -->
<!-- Title: G Pages: 1 -->
<svg width="906pt" height="84pt"
 viewBox="0.00 0.00 906.00 84.00" xmlns="http://www.w3.org/2000/svg" xmlns:xlink="http://www.w3.org/1999/xlink">
<g id="graph0" class="graph" transform="scale(1 1) rotate(0) translate(18 66)">
<title>G</title>
<!-- Project -->
<g id="node1" class="node">
<title>Project</title>
<path fill="#f7f7f7" stroke="#333333" d="M95,-42C95,-42 12,-42 12,-42 6,-42 0,-36 0,-30 0,-30 0,-18 0,-18 0,-12 6,-6 12,-6 12,-6 95,-6 95,-6 101,-6 107,-12 107,-18 107,-18 107,-30 107,-30 107,-36 101,-42 95,-42"/>
<text text-anchor="middle" x="53.5" y="-20.3" font-family="Noto Sans" font-size="14.00">Your project</text>
</g>
<!-- Git -->
<g id="node2" class="node">
<title>Git</title>
<path fill="#f7f7f7" stroke="#333333" d="M283,-42C283,-42 159,-42 159,-42 153,-42 147,-36 147,-30 147,-30 147,-18 147,-18 147,-12 153,-6 159,-6 159,-6 283,-6 283,-6 289,-6 295,-12 295,-18 295,-18 295,-30 295,-30 295,-36 289,-42 283,-42"/>
<text text-anchor="middle" x="221" y="-20.3" font-family="Noto Sans" font-size="14.00">Git tracks changes</text>
</g>
<!-- Project&#45;&gt;Git -->
<g id="edge1" class="edge">
<title>Project&#45;&gt;Git</title>
<path fill="none" stroke="#555555" stroke-width="1.4" d="M107.32,-24C117.35,-24 128.05,-24 138.72,-24"/>
<polygon fill="#555555" stroke="#555555" stroke-width="1.4" points="138.86,-26.8 146.86,-24 138.86,-21.2 138.86,-26.8"/>
</g>
<!-- Repo -->
<g id="node3" class="node">
<title>Repo</title>
<path fill="#f7f7f7" stroke="#333333" d="M421,-42C421,-42 347,-42 347,-42 341,-42 335,-36 335,-30 335,-30 335,-18 335,-18 335,-12 341,-6 347,-6 347,-6 421,-6 421,-6 427,-6 433,-12 433,-18 433,-18 433,-30 433,-30 433,-36 427,-42 421,-42"/>
<text text-anchor="middle" x="384" y="-20.3" font-family="Noto Sans" font-size="14.00">Repository</text>
</g>
<!-- Git&#45;&gt;Repo -->
<g id="edge2" class="edge">
<title>Git&#45;&gt;Repo</title>
<path fill="none" stroke="#555555" stroke-width="1.4" d="M295.43,-24C305.8,-24 316.32,-24 326.31,-24"/>
<polygon fill="#555555" stroke="#555555" stroke-width="1.4" points="326.56,-26.8 334.56,-24 326.56,-21.2 326.56,-26.8"/>
</g>
<!-- Commit -->
<g id="node4" class="node">
<title>Commit</title>
<path fill="#f7f7f7" stroke="#333333" d="M641,-42C641,-42 485,-42 485,-42 479,-42 473,-36 473,-30 473,-30 473,-18 473,-18 473,-12 479,-6 485,-6 485,-6 641,-6 641,-6 647,-6 653,-12 653,-18 653,-18 653,-30 653,-30 653,-36 647,-42 641,-42"/>
<text text-anchor="middle" x="563" y="-20.3" font-family="Noto Sans" font-size="14.00">Commits = checkpoints</text>
</g>
<!-- Repo&#45;&gt;Commit -->
<g id="edge3" class="edge">
<title>Repo&#45;&gt;Commit</title>
<path fill="none" stroke="#555555" stroke-width="1.4" d="M433.37,-24C443.15,-24 453.77,-24 464.57,-24"/>
<polygon fill="#555555" stroke="#555555" stroke-width="1.4" points="464.85,-26.8 472.85,-24 464.85,-21.2 464.85,-26.8"/>
</g>
<!-- GitHub -->
<g id="node5" class="node">
<title>GitHub</title>
<path fill="#f7f7f7" stroke="#333333" d="M858,-48C858,-48 705,-48 705,-48 699,-48 693,-42 693,-36 693,-36 693,-12 693,-12 693,-6 699,0 705,0 705,0 858,0 858,0 864,0 870,-6 870,-12 870,-12 870,-36 870,-36 870,-42 864,-48 858,-48"/>
<text text-anchor="middle" x="781.5" y="-27.8" font-family="Noto Sans" font-size="14.00">GitHub stores + shares</text>
<text text-anchor="middle" x="781.5" y="-12.8" font-family="Noto Sans" font-size="14.00">the repo online</text>
</g>
<!-- Commit&#45;&gt;GitHub -->
<g id="edge4" class="edge">
<title>Commit&#45;&gt;GitHub</title>
<path fill="none" stroke="#555555" stroke-width="1.4" d="M653.31,-24C663.6,-24 674.13,-24 684.51,-24"/>
<polygon fill="#555555" stroke="#555555" stroke-width="1.4" points="684.79,-26.8 692.79,-24 684.79,-21.2 684.79,-26.8"/>
</g>
</g>
</svg>
